<?xml version="1.0" encoding="UTF-8" standalone="no"?>
<!-- Created with Inkscape (http://www.inkscape.org/) -->

<svg
   width="212.49313mm"
   height="210.42668mm"
   viewBox="0 0 212.49313 210.42668"
   version="1.1"
   id="svg1"
   inkscape:version="1.3.2 (091e20e, 2023-11-25, custom)"
   sodipodi:docname="Logo_streamcast.svg"
   inkscape:export-filename="Logo_streamcast.png"
   inkscape:export-xdpi="96"
   inkscape:export-ydpi="96"
   xmlns:inkscape="http://www.inkscape.org/namespaces/inkscape"
   xmlns:sodipodi="http://sodipodi.sourceforge.net/DTD/sodipodi-0.dtd"
   xmlns="http://www.w3.org/2000/svg"
   xmlns:svg="http://www.w3.org/2000/svg">
  <sodipodi:namedview
     id="namedview1"
     pagecolor="#ffffff"
     bordercolor="#000000"
     borderopacity="0.25"
     inkscape:showpageshadow="2"
     inkscape:pageopacity="0.0"
     inkscape:pagecheckerboard="0"
     inkscape:deskcolor="#d1d1d1"
     inkscape:document-units="mm"
     showguides="true"
     showgrid="true"
     inkscape:zoom="1.0242632"
     inkscape:cx="370.02207"
     inkscape:cy="425.18368"
     inkscape:window-width="1920"
     inkscape:window-height="1009"
     inkscape:window-x="1912"
     inkscape:window-y="1"
     inkscape:window-maximized="1"
     inkscape:current-layer="layer2">
    <sodipodi:guide
       position="92.906442,240.8852"
       orientation="0.70710678,-0.70710678"
       id="guide3"
       inkscape:locked="false" />
    <sodipodi:guide
       position="124.9376,230.68172"
       orientation="0,-1"
       id="guide4"
       inkscape:locked="false" />
    <sodipodi:guide
       position="-49.038065,17.442054"
       orientation="1,0"
       id="guide6"
       inkscape:locked="false" />
    <inkscape:grid
       id="grid6"
       units="mm"
       originx="1.3335069"
       originy="-3.0394969"
       spacingx="0.99999998"
       spacingy="1"
       empcolor="#0099e5"
       empopacity="0.30196078"
       color="#0099e5"
       opacity="0.14901961"
       empspacing="5"
       dotted="false"
       gridanglex="30"
       gridanglez="30"
       visible="true" />
  </sodipodi:namedview>
  <defs
     id="defs1">
    <filter
       inkscape:collect="always"
       style="color-interpolation-filters:sRGB"
       id="filter4"
       x="-0.024623026"
       y="-0.02462239"
       width="1.0492461"
       height="1.0492448">
      <feGaussianBlur
         inkscape:collect="always"
         stdDeviation="0.77658313"
         id="feGaussianBlur4" />
    </filter>
    <filter
       inkscape:collect="always"
       style="color-interpolation-filters:sRGB"
       id="filter5"
       x="-0.025298479"
       y="-0.021909372"
       width="1.050597"
       height="1.0438187">
      <feGaussianBlur
         inkscape:collect="always"
         stdDeviation="0.97304857"
         id="feGaussianBlur5" />
    </filter>
    <filter
       inkscape:collect="always"
       style="color-interpolation-filters:sRGB"
       id="filter7"
       x="-0.0085847592"
       y="-0.0086705282"
       width="1.0171695"
       height="1.0173411">
      <feGaussianBlur
         inkscape:collect="always"
         stdDeviation="0.63108712"
         id="feGaussianBlur7" />
    </filter>
  </defs>
  <g
     inkscape:label="Layer 1"
     inkscape:groupmode="layer"
     id="layer1"
     transform="translate(9.3704074,-0.11698761)">
    <path
       id="rect1"
       style="fill:#6409f3;stroke:#6409f3;stroke-width:0.557603;paint-order:fill markers stroke;filter:url(#filter7)"
       d="M 42.217776,1.9103981 H 151.53457 c 27.58631,0 49.79477,22.2084689 49.79477,49.7947729 V 158.95545 c 0,27.58631 -22.20846,49.79478 -49.79477,49.79478 H 42.217776 c -27.586304,0 -49.7947728,-22.20847 -49.7947728,-49.79478 V 51.705171 c 0,-27.586304 22.2084688,-49.7947729 49.7947728,-49.7947729 z" />
    <g
       id="text5"
       style="font-size:93.3333px;font-family:'Comic Sans MS';-inkscape-font-specification:'Comic Sans MS';white-space:pre;fill:#800080;stroke:#0944f3;stroke-width:0;paint-order:fill markers stroke"
       transform="matrix(0.44034565,0,0,0.47287296,-78.3347,-144.75786)"
       aria-label="StreamCast &#10;Pro">
      <path
         style="-inkscape-font-specification:'Digital-7 Italic, ';fill:#ffd5d5"
         d="m 213.13937,619.63025 3.05455,3.39394 -3.73334,3.39393 h -22.06059 l -3.05455,-3.39393 3.73333,-3.39394 z m 4.66667,4.24242 1.52727,1.69697 -2.37576,23.75757 q -1.18788,3.39393 -4.66666,4.24242 l -1.86667,-6.78788 1.78182,-17.81817 z m -7.21212,29.69696 h -25.45454 q -3.30909,-0.84849 -3.81818,-4.24242 l 7.04242,-2.54546 h 20.36363 z m -17.64848,-52.60604 -1.61212,16.1212 -5.6,5.09091 -1.52727,-1.69697 2.20606,-22.0606 z m 0.25455,-1.69697 -6.53333,-2.54545 q 1.18787,-3.39394 4.66666,-4.24243 h 27.06666 q 3.30909,0.84849 3.81818,4.24243 l -7.04242,2.54545 z m 52.52115,24.60605 3.05454,3.39394 -2.20606,22.0606 q -1.18788,3.39393 -4.66666,4.24242 l -1.86667,-6.78788 1.95152,-19.51514 z m -2.88485,-5.09091 1.78182,-17.81817 h 6.78787 l -1.78181,17.81817 -3.73334,3.39394 z m -5.6,-19.51514 -6.53333,-2.54545 q 1.18788,-3.39394 4.66667,-4.24243 h 27.06665 q 3.30909,0.84849 3.81818,4.24243 l -7.04242,2.54545 z m 64.06065,20.36363 3.05455,3.39394 -3.73334,3.39393 h -22.06059 l -3.05455,-3.39393 3.73333,-3.39394 z m -21.21211,8.48484 h 5.09091 l 19.85453,22.0606 q -2.03636,3.39394 -7.12727,3.39394 L 279.57574,633.206 Z m -1.78182,0.84849 -1.78182,17.81817 -3.22424,6.78788 q -3.30909,-0.84849 -3.81818,-4.24242 l 2.37576,-23.75757 1.86667,-1.69697 z m 23.33333,-29.69696 h -20.27878 l -6.53333,-2.54545 q 1.18787,-3.39394 4.66666,-4.24243 h 25.36969 z m -0.0849,17.81817 1.78182,-17.81817 3.22424,-6.78788 q 3.30909,0.84849 3.81818,4.24243 l -2.37576,23.75756 -1.86667,1.69697 z m -20.44848,-16.1212 -1.61212,16.1212 -5.6,5.09091 -1.52727,-1.69697 2.20606,-22.0606 z m 64.31508,18.66666 3.05454,3.39394 -3.73333,3.39393 h -22.0606 l -3.05454,-3.39393 3.73333,-3.39394 z m 0,33.93938 H 317.4181 q -3.30909,-0.84849 -3.81818,-4.24242 l 7.04242,-2.54546 h 22.90908 z m -31.64847,-5.93939 2.20606,-22.0606 1.86666,-1.69697 4.58182,5.09091 -1.61212,16.1212 z m 34.53332,-48.36362 H 325.4787 l -6.53333,-2.54545 q 1.18788,-3.39394 4.66667,-4.24243 h 27.91514 z m -23.07878,1.69697 -1.61212,16.1212 -5.6,5.09091 -1.52727,-1.69697 2.20606,-22.0606 z m 60.92116,18.66666 3.05455,3.39394 -3.73333,3.39393 h -22.0606 l -3.05455,-3.39393 3.73334,-3.39394 z m 4.66667,4.24242 1.52727,1.69697 -2.37576,23.75757 q -1.18787,3.39393 -4.66666,4.24242 l -1.86667,-6.78788 1.78182,-17.81817 z m -4.32727,-24.60605 h -20.27878 l -6.53333,-2.54545 q 1.18787,-3.39394 4.66666,-4.24243 h 25.36969 z m -20.53333,1.69697 -1.61212,16.1212 -5.6,5.09091 -1.52727,-1.69697 2.20606,-22.0606 z m 20.44848,16.1212 1.78182,-17.81817 3.22424,-6.78788 q 3.30909,0.84849 3.81818,4.24243 l -2.37576,23.75756 -1.86666,1.69697 z m -23.24848,11.87879 -1.78181,17.81817 -3.22425,6.78788 q -3.30909,-0.84849 -3.81818,-4.24242 l 2.37576,-23.75757 1.86667,-1.69697 z m 59.39388,-8.48485 -3.73333,3.39394 -3.05455,-3.39394 1.95152,-19.51514 h 6.78787 z m 12.38787,3.39394 1.52728,1.69697 -2.37576,23.75757 q -1.18788,3.39393 -4.66667,4.24242 l -1.86666,-6.78788 1.78182,-17.81817 z m -4.32727,-24.60605 h -20.27878 l -6.53333,-2.54545 q 1.18788,-3.39394 4.66667,-4.24243 h 25.36968 z m -20.53332,1.69697 -1.61212,16.1212 -5.6,5.09091 -1.52727,-1.69697 2.20606,-22.0606 z m 20.44847,16.1212 1.78182,-17.81817 3.22424,-6.78788 q 3.30909,0.84849 3.81818,4.24243 l -2.37575,23.75756 -1.86667,1.69697 z m -23.24847,11.87879 -1.78182,17.81817 -3.22424,6.78788 q -3.30909,-0.84849 -3.81818,-4.24242 l 2.37576,-23.75757 1.86666,-1.69697 z m 67.11508,24.60605 h -27.99999 q -3.30909,-0.84849 -3.81818,-4.24242 l 7.04242,-2.54546 h 22.90909 z m -31.64847,-5.93939 2.20606,-22.0606 1.86667,-1.69697 4.58181,5.09091 -1.61212,16.1212 z m 34.53332,-48.36362 H 454.4482 l -6.53333,-2.54545 q 1.18787,-3.39394 4.66666,-4.24243 h 27.91514 z m -23.07878,1.69697 -1.61212,16.1212 -5.6,5.09091 -1.52727,-1.69697 2.20606,-22.0606 z m 60.92114,18.66666 3.05454,3.39394 -3.73333,3.39393 h -22.0606 l -3.05454,-3.39393 3.73333,-3.39394 z m 4.66666,4.24242 1.52727,1.69697 -2.37575,23.75757 q -1.18788,3.39393 -4.66667,4.24242 l -1.86666,-6.78788 1.78181,-17.81817 z m -4.32727,-24.60605 H 495.1754 l -6.53333,-2.54545 q 1.18788,-3.39394 4.66666,-4.24243 h 25.36969 z m -20.53333,1.69697 -1.61212,16.1212 -5.59999,5.09091 -1.52728,-1.69697 2.20606,-22.0606 z m 20.44848,16.1212 1.78182,-17.81817 3.22424,-6.78788 q 3.30909,0.84849 3.81818,4.24243 l -2.37576,23.75756 -1.86666,1.69697 z m -23.24847,11.87879 -1.78182,17.81817 -3.22424,6.78788 q -3.30909,-0.84849 -3.81818,-4.24242 l 2.37575,-23.75757 1.86667,-1.69697 z m 67.11508,-9.33333 3.05455,3.39394 -3.73334,3.39393 h -22.06059 l -3.05455,-3.39393 3.73333,-3.39394 z m 4.66667,4.24242 1.52727,1.69697 -2.37576,23.75757 q -1.18788,3.39393 -4.66666,4.24242 l -1.86667,-6.78788 1.78182,-17.81817 z m -7.21212,29.69696 H 531.236 q -3.30909,-0.84849 -3.81818,-4.24242 l 7.04242,-2.54546 h 20.36363 z m -17.64848,-52.60604 -1.61212,16.1212 -5.6,5.09091 -1.52727,-1.69697 2.20606,-22.0606 z m 0.25454,-1.69697 -6.53333,-2.54545 q 1.18788,-3.39394 4.66667,-4.24243 h 27.06666 q 3.30908,0.84849 3.81818,4.24243 l -7.04243,2.54545 z m 52.52116,24.60605 3.05454,3.39394 -2.20606,22.0606 q -1.18788,3.39393 -4.66666,4.24242 l -1.86667,-6.78788 1.95151,-19.51514 z m -2.88485,-5.09091 1.78182,-17.81817 h 6.78787 l -1.78181,17.81817 -3.73334,3.39394 z m -5.6,-19.51514 -6.53333,-2.54545 q 1.18788,-3.39394 4.66667,-4.24243 h 27.06665 q 3.30909,0.84849 3.81818,4.24243 l -7.04242,2.54545 z"
         id="path7" />
      <path
         style="-inkscape-font-specification:'Digital-7 Italic, ';fill:#ffd5d5"
         d="m 376.81204,698.95456 3.05454,3.39394 -3.73333,3.39394 h -22.0606 l -3.05454,-3.39394 3.73333,-3.39394 z m 0.33939,-20.36363 H 356.7878 l -6.53333,-2.54545 0.42424,-4.24242 h 27.15151 l 3.05454,3.39393 z m -20.53332,1.69697 -1.61213,16.12121 -5.59999,5.0909 -1.52728,-1.69696 2.20606,-22.0606 z m 20.44847,16.12121 1.78182,-17.81818 2.8,-2.54545 3.81818,4.24242 -1.95152,19.51515 -1.86666,1.69696 z m -23.24847,11.87878 -1.78182,17.81818 -3.22424,6.78787 q -3.30909,-0.84848 -3.81818,-4.24242 l 2.37575,-23.75757 1.86667,-1.69697 z m 67.11508,-9.33333 3.05455,3.39394 -3.73334,3.39394 h -22.06059 l -3.05455,-3.39394 3.73333,-3.39394 z m -21.21211,8.48485 h 5.09091 L 424.66652,729.5 q -2.03636,3.39394 -7.12727,3.39394 l -18.32726,-20.36363 z m -1.78182,0.84848 -1.78182,17.81818 -3.22424,6.78787 q -3.30909,-0.84848 -3.81818,-4.24242 l 2.37576,-23.75757 1.86666,-1.69697 z m 23.33333,-29.69696 h -20.27878 l -6.53334,-2.54545 q 1.18788,-3.39394 4.66667,-4.24242 h 25.36969 z m -0.0848,17.81818 1.78181,-17.81818 3.22425,-6.78787 q 3.30909,0.84848 3.81818,4.24242 l -2.37576,23.75757 -1.86667,1.69696 z m -20.44848,-16.12121 -1.61212,16.12121 -5.6,5.0909 -1.52727,-1.69696 2.20606,-22.0606 z m 64.65448,-1.69697 h -18.66666 l -3.05454,-3.39394 3.73333,-3.39393 h 18.66666 l 3.05454,3.39393 z m -0.0848,17.81818 1.78182,-17.81818 2.8,-2.54545 3.81818,4.24242 -1.95152,19.51515 -1.86666,1.69696 z m 4.41212,6.78787 1.52727,1.69697 -1.95151,19.51515 -4.66667,4.24242 -2.2909,-2.54545 1.78181,-17.81818 z m -32.07271,-1.69697 -1.52728,-1.69696 1.95152,-19.51515 4.66666,-4.24242 2.29091,2.54545 -1.78182,17.81818 z m 26.04847,27.99999 -3.73333,3.39394 h -18.66666 l -3.05454,-3.39394 3.73333,-3.39393 h 18.66666 z m -21.63635,-21.21211 -1.78182,17.81818 -2.8,2.54545 -3.81818,-4.24242 1.95151,-19.51515 1.86667,-1.69697 z"
         id="path8" />
    </g>
  </g>
  <g
     inkscape:groupmode="layer"
     id="layer2"
     inkscape:label="Layer 2"
     transform="translate(8.3156367,-25.059015)">
    <g
       id="path2"
       inkscape:transform-center-x="-18.229503"
       style="filter:url(#filter5)"
       transform="matrix(1.2017789,0,0,1.1314384,9.5109395,48.603307)">
      <path
         style="color:#000000;fill:#00fc1c;-inkscape-stroke:none;paint-order:fill markers stroke"
         d="M 42.725195,96.383789 V -8.7085113 L 133.7378,43.837639 Z"
         id="path9" />
      <path
         style="color:#000000;fill:#0944f3;-inkscape-stroke:none;paint-order:fill markers stroke"
         d="M 42.292969,-9.4570313 V 97.132812 L 134.60352,43.837891 Z m 0.865234,1.4980469 89.712887,51.7968754 -89.712887,51.796875 z"
         id="path10" />
    </g>
    <g
       id="path3"
       style="filter:url(#filter4)"
       transform="matrix(0.99638021,0.37103797,-0.37103797,0.99638021,37.083649,-34.666465)">
      <path
         style="color:#000000;fill:#d40000;-inkscape-stroke:none;paint-order:fill markers stroke"
         d="M 131.54972,98.107323 A 35.25214,35.252144 0 0 1 96.297585,133.35947 35.25214,35.252144 0 0 1 61.045444,98.107323 35.25214,35.252144 0 0 1 96.297585,62.855179 35.25214,35.252144 0 0 1 131.54972,98.107323 Z"
         id="path11" />
      <path
         style="color:#000000;fill:#b909f3;-inkscape-stroke:none;paint-order:fill markers stroke"
         d="m 96.296875,60.259766 c -20.871641,0 -37.845703,16.976013 -37.845703,37.847656 0,20.871638 16.974062,37.847658 37.845703,37.847658 20.871645,0 37.847655,-16.97602 37.847655,-37.847658 0,-20.871643 -16.97601,-37.847656 -37.847655,-37.847656 z m 0,5.189453 c 18.066755,0 32.658205,14.591441 32.658205,32.658203 0,18.066758 -14.59145,32.656248 -32.658205,32.656248 -18.066759,0 -32.65625,-14.58949 -32.65625,-32.656248 0,-18.066762 14.589491,-32.658203 32.65625,-32.658203 z"
         id="path12" />
    </g>
  </g>
</svg>
